<?xml version="1.0" standalone="no"?>
<!DOCTYPE svg PUBLIC "-//W3C//DTD SVG 20010904//EN"
 "http://www.w3.org/TR/2001/REC-SVG-20010904/DTD/svg10.dtd">
<svg version="1.0" xmlns="http://www.w3.org/2000/svg"
 width="200.000000pt" height="200.000000pt" viewBox="0 0 200.000000 200.000000"
 preserveAspectRatio="xMidYMid meet">
<metadata>
Created by potrace 1.11, written by Peter Selinger 2001-2013
</metadata>
<g transform="translate(0.000000,200.000000) scale(0.100000,-0.100000)"
fill="#000000" stroke="none">
<path d="M1783 1948 c-20 -10 -21 -12 -7 -23 15 -10 15 -13 -1 -28 -9 -9 -13
-21 -10 -27 3 -5 0 -10 -8 -10 -7 0 -32 -16 -56 -36 -23 -20 -45 -34 -48 -30
-3 3 -14 -4 -24 -15 -9 -11 -21 -21 -26 -22 -4 -1 -8 -8 -8 -16 0 -8 -4 -16
-10 -17 -15 -5 -41 14 -32 23 5 4 12 1 17 -7 5 -8 12 -11 17 -7 4 5 1 12 -6
16 -10 7 -6 14 18 32 17 12 31 27 31 32 0 11 -130 -100 -145 -123 -5 -8 -11
-23 -12 -34 -3 -16 -1 -17 12 -6 10 9 12 16 5 20 -6 4 2 17 19 34 16 16 34 25
40 22 16 -10 14 -26 -2 -20 -8 3 -20 -3 -28 -13 -13 -16 -12 -17 4 -4 33 26
15 -4 -20 -34 -31 -25 -37 -27 -46 -14 -8 12 -18 7 -61 -32 l-51 -48 -6 -94
c-3 -52 -9 -99 -13 -105 -5 -8 -62 -12 -187 -12 -115 0 -194 -4 -220 -12 -24
-8 -65 -37 -106 -75 -68 -64 -76 -81 -30 -64 22 9 28 7 37 -9 6 -11 9 -25 8
-32 -2 -8 6 -12 20 -11 26 3 28 -9 6 -31 -8 -9 -11 -16 -6 -16 5 0 12 3 16 7
3 4 12 8 19 9 33 6 326 143 354 166 8 6 37 13 64 15 43 2 49 0 54 -20 9 -35
-31 -159 -59 -183 -14 -12 -69 -37 -123 -54 -54 -18 -100 -36 -103 -40 -6 -9
-337 -92 -443 -112 -37 -7 -67 -15 -67 -18 0 -3 -28 -5 -63 -4 -34 1 -45 -1
-24 -3 20 -2 37 -9 37 -14 0 -6 -4 -8 -9 -4 -5 3 -19 -7 -31 -22 -16 -21 -23
-24 -29 -14 -6 9 -11 10 -15 3 -9 -14 -26 -7 -120 50 -44 26 -84 48 -89 48 -5
0 -6 7 -3 16 5 14 4 15 -8 5 -12 -10 -14 -32 -11 -102 3 -49 2 -88 -3 -88 -4
1 -10 1 -14 0 -9 -1 41 -114 55 -123 9 -6 9 -8 0 -8 -7 0 -10 -7 -6 -17 5 -15
3 -16 -8 -5 -7 6 -20 12 -28 12 -14 0 -14 -1 -1 -10 12 -8 11 -10 -7 -10 -12
0 -26 -6 -30 -13 -4 -7 -22 -19 -38 -25 -17 -7 -43 -23 -59 -35 -28 -23 -29
-24 -22 -100 5 -52 14 -84 27 -101 22 -28 178 -162 222 -191 l27 -17 123 73
c67 41 130 77 141 82 10 4 30 15 45 25 30 21 64 36 57 24 -6 -10 96 -8 112 2
7 4 12 3 12 -1 0 -5 15 -8 33 -6 29 2 176 -28 372 -76 343 -85 497 -121 512
-121 10 0 31 20 48 45 16 24 33 41 37 39 13 -8 22 26 10 38 -7 7 -8 18 -3 27
5 9 11 32 15 53 6 31 16 42 71 77 55 34 65 45 65 68 0 15 3 52 6 81 7 51 6 52
-20 52 -14 0 -26 -4 -26 -8 0 -4 -15 -13 -33 -20 -18 -7 -43 -21 -54 -31 -11
-11 -23 -17 -26 -14 -4 3 -13 -2 -22 -11 -9 -9 -27 -16 -41 -16 -13 0 -24 -4
-24 -9 0 -5 -19 -16 -42 -26 -40 -16 -43 -16 -55 1 -7 10 -13 23 -13 28 0 6
-4 5 -9 -3 -7 -11 -10 -9 -16 8 -8 25 14 51 42 51 11 0 25 6 31 12 10 10 15
10 22 -2 5 -8 10 -10 10 -4 0 16 91 34 113 22 13 -7 23 -6 31 2 8 8 7 10 -5 5
-10 -4 -20 -2 -24 4 -3 6 2 14 11 18 11 4 22 0 28 -10 9 -15 13 -12 29 16 10
19 15 23 12 10 -5 -18 -2 -20 14 -16 17 4 20 11 14 32 -3 14 -13 30 -20 35
-12 7 -14 28 -8 122 4 63 4 114 1 114 -4 0 -17 -6 -29 -14 -23 -14 -53 -20
-224 -42 -51 -7 -57 9 -18 46 23 21 36 24 125 27 98 3 112 -1 88 -25 -7 -7 -8
-12 -2 -12 5 0 18 15 29 33 16 27 16 30 2 18 -10 -8 -17 -9 -17 -3 0 6 -14 13
-30 17 -17 4 -27 11 -24 17 4 6 10 6 17 -1 16 -16 30 -13 23 5 -3 8 -2 12 4 9
15 -9 12 2 -16 66 -15 32 -30 56 -35 53 -5 -3 -6 1 -4 8 3 8 0 21 -7 30 -12
15 -22 15 -108 2 -52 -7 -101 -13 -107 -14 -9 0 -13 19 -14 63 0 55 -2 59 -12
37 -6 -14 -14 -27 -18 -30 -3 -3 -9 -15 -13 -27 -4 -13 -15 -23 -24 -23 -12 0
-13 -3 -5 -8 9 -5 3 -25 -21 -72 -32 -64 -33 -65 -71 -63 -21 2 -41 7 -44 12
-3 5 -26 12 -51 16 -67 11 -78 20 -41 33 17 6 39 9 49 6 13 -5 14 -4 4 4 -11
7 -10 11 5 17 10 5 23 7 30 6 6 -1 14 3 18 9 3 5 0 7 -9 4 -11 -4 -10 7 6 63
20 68 20 69 52 65 22 -2 27 -1 17 6 -8 6 -20 8 -28 5 -7 -3 -13 2 -13 11 0 10
6 13 15 10 8 -4 15 -1 15 5 0 6 -7 11 -16 11 -14 0 -15 8 -9 48 4 26 11 51 16
57 5 5 9 21 9 37 0 48 22 78 104 140 171 130 376 318 376 346 0 5 -8 20 -18
32 -17 20 -20 21 -34 7 -9 -9 -18 -13 -22 -10 -3 3 2 12 12 19 14 11 14 13 2
13 -8 0 -25 -5 -37 -11z m-330 -341 c-3 -5 -10 -4 -15 1 -6 6 -7 16 -3 22 6 9
9 9 16 -1 4 -7 5 -17 2 -22z m-136 -282 c-15 -14 -33 -25 -40 -25 -7 0 2 11
18 25 39 32 58 32 22 0z m503 -332 c0 -13 -3 -13 -15 -3 -8 7 -15 16 -15 21 0
5 7 6 15 3 8 -4 15 -13 15 -21z m-40 -27 c0 -9 -30 -14 -35 -6 -4 6 3 10 14
10 12 0 21 -2 21 -4z m-1253 -145 c-2 -24 -5 -27 -16 -18 -10 8 -13 8 -8 1 3
-6 0 -20 -8 -30 -9 -12 -14 -14 -15 -6 0 7 -4 11 -9 7 -5 -3 -12 -1 -15 4 -4
5 8 20 26 32 18 13 35 27 36 31 7 16 11 7 9 -21z m-237 -221 c0 -5 -4 -10 -9
-10 -6 0 -13 5 -16 10 -3 6 1 10 9 10 9 0 16 -4 16 -10z m21 -23 c-15 -15 -84
-18 -71 -2 5 6 26 11 46 12 26 1 33 -2 25 -10z m1249 -67 c0 -5 -4 -10 -10
-10 -5 0 -10 5 -10 10 0 6 5 10 10 10 6 0 10 -4 10 -10z m-1456 -19 c11 -4 15
-10 10 -13 -5 -4 -18 0 -29 8 -20 15 -12 17 19 5z m46 -27 c0 -8 -4 -14 -9
-14 -6 0 -9 9 -8 19 1 22 17 18 17 -5z m-55 -12 c-3 -3 -11 0 -18 7 -9 10 -8
11 6 5 10 -3 15 -9 12 -12z"/>
<path d="M1666 1855 c-11 -8 -15 -15 -9 -15 6 0 16 7 23 15 16 19 11 19 -14 0z"/>
<path d="M1438 1243 c7 -3 16 -2 19 1 4 3 -2 6 -13 5 -11 0 -14 -3 -6 -6z"/>
<path d="M570 1208 c0 -9 7 -19 16 -22 15 -6 15 -4 3 11 -7 10 -15 20 -16 22
-2 2 -3 -3 -3 -11z"/>
<path d="M549 1187 c13 -16 12 -17 -13 -8 -23 9 -26 8 -27 -12 -1 -12 -1 -26
0 -30 1 -4 -11 -12 -27 -18 -26 -9 -41 -49 -18 -49 19 0 -9 -17 -47 -30 -20
-6 -35 -16 -31 -21 3 -5 13 -5 24 1 29 16 45 13 30 -5 -10 -12 -10 -15 1 -16
8 -1 -3 -5 -23 -8 -34 -6 -36 -7 -22 -25 11 -16 17 -17 26 -8 7 7 16 12 21 12
5 0 -1 -8 -14 -19 l-23 -18 21 -12 c14 -7 24 -8 28 -1 3 5 4 10 1 10 -8 0 42
53 136 148 l88 87 -50 1 c-34 0 -57 7 -72 20 -19 16 -20 16 -9 1z m-47 -95
c-7 -2 -12 -10 -12 -18 0 -9 -5 -12 -10 -9 -6 4 -9 14 -8 23 4 20 31 34 37 19
2 -6 -1 -13 -7 -15z m5 -44 c-3 -8 -6 -5 -6 6 -1 11 2 17 5 13 3 -3 4 -12 1
-19z m-16 -65 c-12 -20 -14 -14 -5 12 4 9 9 14 11 11 3 -2 0 -13 -6 -23z"/>
<path d="M1410 1176 c0 -2 9 -6 20 -9 11 -3 18 -1 14 4 -5 9 -34 13 -34 5z"/>
<path d="M1418 1133 c7 -3 16 -2 19 1 4 3 -2 6 -13 5 -11 0 -14 -3 -6 -6z"/>
<path d="M416 1082 c-3 -6 -1 -14 5 -17 14 -9 20 -2 10 14 -6 8 -11 9 -15 3z"/>
<path d="M1375 1070 c-3 -5 -1 -10 4 -10 6 0 11 5 11 10 0 6 -2 10 -4 10 -3 0
-8 -4 -11 -10z"/>
<path d="M395 1060 c6 -10 4 -12 -11 -6 -15 6 -17 5 -6 -5 9 -9 15 -10 23 -2
8 8 7 13 -2 18 -8 6 -10 4 -4 -5z"/>
<path d="M316 992 c1 -21 6 -26 23 -25 12 2 24 -4 27 -12 4 -8 14 -15 23 -15
13 1 11 4 -7 20 -12 10 -28 21 -35 24 -9 3 -7 9 5 19 16 13 15 14 -10 15 -24
0 -27 -3 -26 -26z"/>
<path d="M1788 893 c7 -3 16 -2 19 1 4 3 -2 6 -13 5 -11 0 -14 -3 -6 -6z"/>
<path d="M1664 875 c-22 -17 -7 -19 31 -5 17 7 24 7 20 0 -3 -6 1 -10 9 -10 9
0 16 5 16 10 0 6 12 8 28 5 22 -4 24 -4 7 4 -31 15 -89 13 -111 -4z"/>
<path d="M1608 853 c7 -3 16 -2 19 1 4 3 -2 6 -13 5 -11 0 -14 -3 -6 -6z"/>
<path d="M420 846 c0 -2 7 -6 15 -10 8 -3 15 -1 15 4 0 6 -7 10 -15 10 -8 0
-15 -2 -15 -4z"/>
<path d="M196 627 c3 -10 9 -15 12 -12 3 3 0 11 -7 18 -10 9 -11 8 -5 -6z"/>
<path d="M1920 635 c0 -5 5 -17 10 -25 5 -8 10 -10 10 -5 0 6 -5 17 -10 25 -5
8 -10 11 -10 5z"/>
<path d="M1770 550 c0 -5 5 -10 11 -10 5 0 7 5 4 10 -3 6 -8 10 -11 10 -2 0
-4 -4 -4 -10z"/>
</g>
</svg>
